<?xml version="1.0" encoding="UTF-8"?>
<!DOCTYPE svg PUBLIC "-//W3C//DTD SVG 1.1//EN" "http://www.w3.org/Graphics/SVG/1.1/DTD/svg11.dtd">
<svg xmlns="http://www.w3.org/2000/svg" version="1.1" width="563px" height="146px" style="shape-rendering:geometricPrecision; text-rendering:geometricPrecision; image-rendering:optimizeQuality; fill-rule:evenodd; clip-rule:evenodd" xmlns:xlink="http://www.w3.org/1999/xlink">
<g><path style="opacity:0.979" fill="#fdfdfd" d="M 152.5,8.5 C 163.671,6.84329 172.505,10.51 179,19.5C 181.332,24.8282 180.832,29.8282 177.5,34.5C 182.555,36.055 185.722,39.3883 187,44.5C 187.667,55.1667 187.667,65.8333 187,76.5C 186.064,80.2074 184.231,83.3741 181.5,86C 170.969,88.4393 160.302,89.106 149.5,88C 148.332,86.1291 148.832,84.6291 151,83.5C 152.576,61.1963 152.909,38.863 152,16.5C 150.589,14.3496 149.755,12.0163 149.5,9.5C 150.791,9.73731 151.791,9.40397 152.5,8.5 Z M 162.5,19.5 C 169.063,19.5886 171.563,22.922 170,29.5C 168.741,33.2233 166.408,34.2233 163,32.5C 161.312,28.1755 161.146,23.8422 162.5,19.5 Z M 165.5,42.5 C 168.079,43.2276 170.746,43.7276 173.5,44C 175.333,44.5 176.5,45.6667 177,47.5C 179.042,57.5762 178.709,67.5762 176,77.5C 171.476,79.699 166.809,80.0323 162,78.5C 160,67.1667 160,55.8333 162,44.5C 163.302,43.9152 164.469,43.2485 165.5,42.5 Z"/></g>
<g><path style="opacity:0.961" fill="#fdfdfd" d="M 189.5,8.5 C 193.846,8.33432 198.179,8.50098 202.5,9C 203.869,11.2393 203.369,13.0726 201,14.5C 200.333,34.8333 200.333,55.1667 201,75.5C 203.405,80.7559 206.071,80.7559 209,75.5C 209.219,57.1527 209.719,38.8194 210.5,20.5C 210.53,16.5836 209.197,13.2502 206.5,10.5C 206.709,9.91395 207.043,9.41395 207.5,9C 212.167,8.33333 216.833,8.33333 221.5,9C 221.957,9.41395 222.291,9.91395 222.5,10.5C 220.631,13.9399 219.465,17.6066 219,21.5C 218.333,38.5 218.333,55.5 219,72.5C 219.751,76.2657 221.751,79.2657 225,81.5C 226.167,87 224,89.1667 218.5,88C 216.833,87.1667 215.167,86.3333 213.5,85.5C 204.724,90.8592 197.891,89.1925 193,80.5C 191.699,58.8971 191.033,37.2304 191,15.5C 188.697,13.4528 188.197,11.1194 189.5,8.5 Z"/></g>
<g><path style="opacity:0.946" fill="#fcfcfc" d="M 227.5,8.5 C 236.895,8.89715 246.228,9.73048 255.5,11C 257.028,13.8808 256.362,16.2141 253.5,18C 250.905,18.2256 248.405,18.7256 246,19.5C 245.333,40.8333 245.333,62.1667 246,83.5C 247.923,85.1188 248.423,86.9521 247.5,89C 243.833,89.6667 240.167,89.6667 236.5,89C 232.217,88.3115 231.717,86.8115 235,84.5C 235.18,74.9226 235.68,65.4226 236.5,56C 236.527,44.9327 236.36,33.766 236,22.5C 235.691,21.2341 235.191,20.0674 234.5,19C 231.22,18.944 228.22,18.1107 225.5,16.5C 223.982,13.2392 224.648,10.5725 227.5,8.5 Z"/></g>
<g><path style="opacity:0.943" fill="#fdfdfd" d="M 261.5,8.5 C 265.703,8.07611 269.703,8.57611 273.5,10C 273,10.5 272.5,11 272,11.5C 271.549,27.6682 271.049,43.8349 270.5,60C 270.404,65.9125 270.904,71.7459 272,77.5C 276.845,80.2867 281.512,79.9533 286,76.5C 288.702,79.7765 289.202,83.4431 287.5,87.5C 286.624,88.2508 285.624,88.7508 284.5,89C 275.798,89.7444 267.132,89.5778 258.5,88.5C 260.569,83.0386 261.902,77.372 262.5,71.5C 261.694,54.1915 261.194,36.8581 261,19.5C 259.227,15.5801 259.393,11.9134 261.5,8.5 Z"/></g>
<g><path style="opacity:0.955" fill="#fdfdfd" d="M 291.5,8.5 C 300.87,8.31773 310.204,8.81773 319.5,10C 323.224,13.645 322.557,16.645 317.5,19C 313.5,19 309.5,19 305.5,19C 301.43,27.2834 304.096,30.95 313.5,30C 316.608,31.9396 317.275,34.6063 315.5,38C 311.439,38.7308 307.606,39.8975 304,41.5C 303.333,52.8333 303.333,64.1667 304,75.5C 304.5,76.6667 305.333,77.5 306.5,78C 311.282,78.1186 315.949,78.7852 320.5,80C 323.197,83.3615 322.531,86.0282 318.5,88C 309.5,88.6667 300.5,88.6667 291.5,88C 291.043,87.586 290.709,87.086 290.5,86.5C 292.48,84.2052 293.647,81.5385 294,78.5C 294.142,70.1745 293.975,61.8412 293.5,53.5C 293.489,44.8934 294.156,36.3934 295.5,28C 294.167,25.3333 294.167,22.6667 295.5,20C 294.57,15.9849 293.237,12.1516 291.5,8.5 Z"/></g>
<g><path style="opacity:0.966" fill="#fdfdfd" d="M 326.5,8.5 C 333.428,9.08156 340.428,9.24823 347.5,9C 355.192,11.8822 358.026,17.3822 356,25.5C 354.587,29.2395 352.753,32.7395 350.5,36C 352.126,38.0868 353.626,40.2535 355,42.5C 355.333,56.5 355.667,70.5 356,84.5C 357.188,85.5634 357.688,86.8967 357.5,88.5C 353.537,89.44 349.537,89.6067 345.5,89C 344.09,88.6322 343.09,87.7989 342.5,86.5C 343.766,85.2764 344.933,83.9431 346,82.5C 346.667,70.8333 346.667,59.1667 346,47.5C 342.995,43.4053 340.329,43.7386 338,48.5C 336.768,60.1325 336.768,71.7992 338,83.5C 341.59,88.9443 339.924,90.9443 333,89.5C 330.833,89.3333 328.667,89.1667 326.5,89C 323.882,87.0262 324.048,85.1929 327,83.5C 328.158,61.1752 328.491,38.8419 328,16.5C 325.884,14.0036 325.384,11.3369 326.5,8.5 Z M 338.5,18.5 C 343.741,17.14 346.408,19.14 346.5,24.5C 345.2,28.7823 342.7,32.1156 339,34.5C 338.055,34.0946 337.388,33.428 337,32.5C 336.119,27.6423 336.619,22.9756 338.5,18.5 Z"/></g>
<g><path style="opacity:0.984" fill="#fdfdfd" d="M 383.5,9.5 C 390.833,9.5 398.167,9.5 405.5,9.5C 405.5,16.5 405.5,23.5 405.5,30.5C 401.395,30.7662 397.395,30.2662 393.5,29C 391.343,27.9153 391.176,26.7487 393,25.5C 394.471,20.9667 392.804,18.6334 388,18.5C 381.59,19.5759 379.257,23.2426 381,29.5C 381.833,30.3333 382.667,31.1667 383.5,32C 394.062,33.1974 402.896,37.6974 410,45.5C 414.624,55.5145 414.624,65.5145 410,75.5C 399.217,89.1528 386.05,91.9861 370.5,84C 360.212,75.9564 356.379,65.4564 359,52.5C 359.786,47.3657 362.619,44.8657 367.5,45C 368.667,45.5 369.5,46.3333 370,47.5C 368.735,53.705 368.402,60.0384 369,66.5C 375.285,79.1162 384.785,82.2828 397.5,76C 406.869,67.2477 407.536,57.9144 399.5,48C 397.33,46.4138 394.996,45.0804 392.5,44C 375.567,42.5896 369.067,33.7562 373,17.5C 375.806,13.8526 379.306,11.1859 383.5,9.5 Z"/></g>
<g><path style="opacity:0.248" fill="#e4e4e4" d="M 346.5,105.5 C 302.82,104.839 259.487,105.505 216.5,107.5C 215.596,106.791 215.263,105.791 215.5,104.5C 259.337,104.168 303.003,104.501 346.5,105.5 Z"/></g>
<g><path style="opacity:0.519" fill="#fefefe" d="M 346.5,105.5 C 303.513,107.495 260.18,108.161 216.5,107.5C 259.487,105.505 302.82,104.839 346.5,105.5 Z"/></g>
<g><path style="opacity:0.939" fill="#f8f8f8" d="M 285.5,123.5 C 285.833,124.167 286.167,124.833 286.5,125.5C 285.542,125.953 284.708,126.619 284,127.5C 283.156,125.537 283.656,124.204 285.5,123.5 Z"/></g>
<g><path style="opacity:0.029" fill="#e5e5e5" d="M 285.5,123.5 C 288.5,123.5 291.5,123.5 294.5,123.5C 294.167,124.167 293.833,124.833 293.5,125.5C 292.5,125.5 291.5,125.5 290.5,125.5C 289.771,128.583 289.104,132.25 288.5,136.5C 289.08,132.351 288.414,128.684 286.5,125.5C 286.167,124.833 285.833,124.167 285.5,123.5 Z"/></g>
<g><path style="opacity:0.785" fill="#f9f9f9" d="M 294.5,123.5 C 296.476,124.427 296.809,125.76 295.5,127.5C 294.818,126.757 294.151,126.091 293.5,125.5C 293.833,124.833 294.167,124.167 294.5,123.5 Z"/></g>
<g><path style="opacity:0.208" fill="#ebebeb" d="M 314.5,125.5 C 313.833,124.167 313.167,124.167 312.5,125.5C 311.624,125.631 310.957,125.298 310.5,124.5C 313.833,123.167 317.167,123.167 320.5,124.5C 321.59,125.609 321.59,126.609 320.5,127.5C 318.821,125.896 316.821,125.229 314.5,125.5 Z"/></g>
<g><path style="opacity:0.076" fill="#e4e4e4" d="M 323.5,123.5 C 326.713,123.19 329.713,123.523 332.5,124.5C 331.508,124.328 330.842,124.662 330.5,125.5C 329.167,125.5 327.833,125.5 326.5,125.5C 325.5,124.833 324.5,124.167 323.5,123.5 Z"/></g>
<g><path style="opacity:0.037" fill="#ebebeb" d="M 342.5,125.5 C 341.5,124.167 340.5,124.167 339.5,125.5C 337.857,125.48 336.524,126.147 335.5,127.5C 334.571,126.311 334.238,124.978 334.5,123.5C 338.833,123.5 343.167,123.5 347.5,123.5C 347.762,124.978 347.429,126.311 346.5,127.5C 345.476,126.147 344.143,125.48 342.5,125.5 Z"/></g>
<g><path style="opacity:0.953" fill="#f5f5f5" d="M 290.5,125.5 C 290.814,129.911 291.814,134.078 293.5,138C 291.167,138.667 288.833,138.667 286.5,138C 287.044,137.283 287.711,136.783 288.5,136.5C 289.104,132.25 289.771,128.583 290.5,125.5 Z"/></g>
<g><path style="opacity:0.814" fill="#f8f8f8" d="M 323.5,123.5 C 324.5,124.167 325.5,124.833 326.5,125.5C 327.684,126.688 327.684,127.855 326.5,129C 328.137,130.951 329.637,130.784 331,128.5C 331.667,130.167 331.667,131.833 331,133.5C 330.163,131.993 328.996,131.493 327.5,132C 327.384,133.268 327.051,134.602 326.5,136C 329.2,137.946 331.533,137.446 333.5,134.5C 334.59,135.391 334.59,136.391 333.5,137.5C 329.878,138.659 326.211,138.825 322.5,138C 324.059,136.004 324.726,133.671 324.5,131C 324.346,128.621 323.68,126.454 322.5,124.5C 322.624,123.893 322.957,123.56 323.5,123.5 Z"/></g>
<g><path style="opacity:0.701" fill="#f8f8f8" d="M 330.5,125.5 C 330.842,124.662 331.508,124.328 332.5,124.5C 333.49,127.839 332.823,128.172 330.5,125.5 Z"/></g>
<g><path style="opacity:0.555" fill="#fcfcfc" d="M 342.5,125.5 C 341.945,129.997 342.611,134.164 344.5,138C 342.167,138.667 339.833,138.667 337.5,138C 339.389,134.164 340.055,129.997 339.5,125.5C 340.5,124.167 341.5,124.167 342.5,125.5 Z"/></g>
<g><path style="opacity:0.884" fill="#f9f9f9" d="M 215.5,123.5 C 218.187,123.336 220.854,123.503 223.5,124C 227.859,128.077 227.192,131.244 221.5,133.5C 220.914,133.291 220.414,132.957 220,132.5C 219.175,134.701 219.675,136.534 221.5,138C 219.5,138.667 217.5,138.667 215.5,138C 217.045,136.178 217.712,134.011 217.5,131.5C 217.617,128.56 216.95,125.893 215.5,123.5 Z M 219.5,125.5 C 223.35,125.701 224.35,127.534 222.5,131C 221.552,131.483 220.552,131.649 219.5,131.5C 219.5,129.5 219.5,127.5 219.5,125.5 Z"/></g>
<g><path style="opacity:0.931" fill="#f8f8f8" d="M 276.5,123.5 C 279.288,123.077 281.288,124.077 282.5,126.5C 282.167,126.833 281.833,127.167 281.5,127.5C 280.158,125.995 278.492,125.328 276.5,125.5C 276.351,126.552 276.517,127.552 277,128.5C 279.729,129.727 281.562,131.727 282.5,134.5C 282.471,136.029 281.804,137.196 280.5,138C 278.231,138.758 276.064,138.591 274,137.5C 273.333,136.167 273.333,134.833 274,133.5C 275.589,137.822 277.756,138.322 280.5,135C 277.641,132.923 275.308,130.423 273.5,127.5C 274.172,125.84 275.172,124.507 276.5,123.5 Z"/></g>
<g><path style="opacity:0.834" fill="#f9f9f9" d="M 232.5,123.5 C 234.919,128.239 237.253,133.073 239.5,138C 237.741,138.798 236.074,138.631 234.5,137.5C 235.534,135.562 234.868,134.228 232.5,133.5C 229.604,134.024 228.937,135.524 230.5,138C 228.833,138.667 227.167,138.667 225.5,138C 228.232,133.37 230.565,128.536 232.5,123.5 Z M 231.5,128.5 C 232.267,129.172 232.934,130.005 233.5,131C 231.939,131.188 231.272,130.355 231.5,128.5 Z"/></g>
<g><path style="opacity:0.937" fill="#f8f8f8" d="M 312.5,125.5 C 313.167,124.167 313.833,124.167 314.5,125.5C 314.038,130.244 315.538,131.244 319,128.5C 319.667,130.167 319.667,131.833 319,133.5C 317.89,131.963 316.39,131.297 314.5,131.5C 314.367,138.124 316.701,139.124 321.5,134.5C 321.906,135.557 321.906,136.891 321.5,138.5C 316.489,138.666 311.489,138.499 306.5,138C 305.12,136.075 303.62,134.241 302,132.5C 301.137,134.749 301.637,136.582 303.5,138C 301.167,138.667 298.833,138.667 296.5,138C 298.835,133.767 299.168,129.267 297.5,124.5C 300.577,123.201 303.577,123.368 306.5,125C 307.982,127.592 307.648,129.925 305.5,132C 306.641,134.308 308.308,136.141 310.5,137.5C 311.086,137.291 311.586,136.957 312,136.5C 312.499,132.848 312.665,129.182 312.5,125.5 Z M 301.5,125.5 C 302.5,125.5 303.5,125.5 304.5,125.5C 304.849,128.045 304.016,130.045 302,131.5C 301.505,129.527 301.338,127.527 301.5,125.5 Z"/></g>
<g><path style="opacity:0.927" fill="#f8f8f8" d="M 255.5,126.5 C 256.151,125.909 256.818,125.243 257.5,124.5C 258.107,124.624 258.44,124.957 258.5,125.5C 258.11,130.422 259.277,130.756 262,126.5C 262.483,125.552 262.649,124.552 262.5,123.5C 264.288,123.215 265.955,123.548 267.5,124.5C 264.804,125.851 262.47,127.684 260.5,130C 262.5,133.333 265.167,136 268.5,138C 266.833,138.667 265.167,138.667 263.5,138C 262.378,135.876 260.878,134.043 259,132.5C 258.137,134.749 258.637,136.582 260.5,138C 254.013,140.067 249.18,138.234 246,132.5C 245.257,134.441 245.424,136.274 246.5,138C 244.5,138.667 242.5,138.667 240.5,138C 241.743,136.13 242.41,133.964 242.5,131.5C 242.36,128.957 241.694,126.623 240.5,124.5C 243.913,123.177 247.247,123.344 250.5,125C 251.059,125.725 251.392,126.558 251.5,127.5C 250.155,129.323 249.655,131.323 250,133.5C 250.875,136.215 252.708,137.548 255.5,137.5C 255.5,133.833 255.5,130.167 255.5,126.5 Z M 245.5,125.5 C 248.084,126.048 249.084,127.715 248.5,130.5C 247.5,130.5 246.5,130.5 245.5,130.5C 245.5,128.833 245.5,127.167 245.5,125.5 Z"/></g>
<g><path style="opacity:0.17" fill="#ececec" d="M 258.5,125.5 C 258.44,124.957 258.107,124.624 257.5,124.5C 256.818,125.243 256.151,125.909 255.5,126.5C 254.095,124.547 254.761,123.547 257.5,123.5C 258.5,123.833 259.5,124.167 260.5,124.5C 260.043,125.298 259.376,125.631 258.5,125.5 Z"/></g>
</svg>
